<?xml version="1.0" standalone="no"?>
<!DOCTYPE svg PUBLIC "-//W3C//DTD SVG 20010904//EN"
 "http://www.w3.org/TR/2001/REC-SVG-20010904/DTD/svg10.dtd">
<svg version="1.0" xmlns="http://www.w3.org/2000/svg"
 width="620.000000pt" height="472.000000pt" viewBox="0 0 620.000000 472.000000"
 preserveAspectRatio="xMidYMid meet">

<g transform="translate(0.000000,472.000000) scale(0.100000,-0.100000)"
fill="currentColor" stroke="none">
<path d="M2990 4689 c-411 -88 -716 -397 -800 -809 -41 -199 -14 -440 70 -625
128 -284 388 -499 696 -577 128 -32 360 -32 488 0 377 95 663 381 758 758 32
128 32 360 0 488 -94 372 -373 655 -742 753 -135 36 -336 41 -470 12z"/>
<path d="M805 3974 c-38 -8 -113 -36 -165 -61 -79 -38 -108 -59 -181 -132 -73
-73 -94 -102 -132 -181 -74 -154 -94 -306 -61 -468 9 -44 35 -117 61 -172 38
-79 59 -107 132 -180 95 -94 173 -142 301 -182 62 -19 97 -23 200 -23 103 0
138 4 200 23 128 40 206 88 300 182 94 94 142 172 182 300 33 108 33 292 0
400 -40 128 -88 206 -182 301 -73 73 -101 94 -180 132 -153 74 -314 94 -475
61z"/>
<path d="M5285 3974 c-38 -8 -113 -36 -165 -61 -79 -38 -108 -59 -181 -132
-73 -73 -94 -102 -132 -181 -103 -213 -103 -427 0 -640 38 -79 59 -107 132
-180 95 -94 173 -142 301 -182 62 -19 97 -23 200 -23 103 0 138 4 200 23 128
40 206 88 300 182 94 94 142 172 182 300 33 108 33 292 0 400 -40 128 -88 206
-182 301 -73 73 -101 94 -180 132 -153 74 -314 94 -475 61z"/>
<path d="M3000 2140 c-689 -95 -1215 -586 -1361 -1270 -20 -90 -23 -136 -23
-330 l-1 -225 29 -58 c19 -39 44 -71 78 -97 93 -74 18 -70 1315 -70 640 0
1163 2 1163 6 0 3 -17 31 -39 62 -92 137 -175 343 -208 522 -26 140 -23 392 5
527 39 179 114 363 204 495 21 32 41 65 44 73 8 19 0 25 -128 111 -167 112
-356 190 -563 234 -114 24 -404 35 -515 20z"/>
<path d="M1080 1975 c-535 -92 -947 -488 -1045 -1005 -8 -47 -20 -101 -25
-121 -6 -20 -10 -137 -10 -260 0 -218 1 -225 27 -293 31 -81 89 -146 161 -179
46 -21 59 -22 516 -25 446 -3 468 -2 463 15 -53 162 -51 146 -51 398 -1 183 4
267 17 354 59 376 207 715 436 1001 28 35 51 69 51 75 0 13 -64 29 -175 45
-95 13 -273 11 -365 -5z"/>
<path d="M4650 1831 c-144 -46 -243 -160 -271 -313 -31 -166 62 -349 213 -422
95 -45 224 -54 308 -22 10 4 41 -19 90 -69 l75 -75 -76 -76 c-73 -73 -76 -75
-105 -63 -44 17 -171 15 -234 -4 -181 -54 -304 -253 -272 -440 14 -82 49 -154
103 -212 197 -214 564 -139 665 135 18 49 24 180 11 246 l-8 41 520 519 c389
387 521 525 521 542 0 62 -75 112 -179 120 -116 8 -129 -1 -436 -308 -149
-149 -274 -270 -280 -270 -5 0 -41 32 -78 70 l-69 71 9 42 c13 70 9 188 -10
244 -10 28 -36 76 -57 106 -92 129 -283 189 -440 138z m198 -215 c31 -16 74
-61 91 -93 18 -34 13 -110 -9 -153 -31 -60 -90 -95 -161 -95 -49 1 -64 5 -95
31 -66 53 -79 78 -79 149 0 55 4 68 31 102 17 21 46 46 65 55 41 22 120 23
157 4z m-1 -1047 c59 -29 95 -78 101 -139 6 -65 -2 -93 -40 -135 -41 -47 -77
-65 -132 -65 -80 0 -131 31 -167 102 -38 74 -19 151 51 211 61 52 117 60 187
26z"/>
<path d="M5542 687 c-56 -56 -102 -107 -102 -112 0 -6 93 -103 208 -216 235
-234 253 -246 367 -237 69 6 146 42 165 78 24 45 14 59 -252 326 -144 145
-267 264 -273 264 -6 0 -56 -46 -113 -103z"/>
</g>
</svg>
