<?xml version="1.0" standalone="no"?>
<!DOCTYPE svg PUBLIC "-//W3C//DTD SVG 20010904//EN"
 "http://www.w3.org/TR/2001/REC-SVG-20010904/DTD/svg10.dtd">
<svg version="1.0" xmlns="http://www.w3.org/2000/svg"
 width="446.000000pt" height="504.000000pt" viewBox="0 0 446.000000 504.000000"
 preserveAspectRatio="xMidYMid meet">

<g transform="translate(0.000000,504.000000) scale(0.100000,-0.100000)"
fill="currentColor" stroke="none">
<path d="M1866 5014 c-568 -103 -976 -593 -976 -1174 0 -665 525 -1190 1190
-1190 665 0 1190 525 1190 1190 0 584 -411 1075 -984 1175 -109 19 -313 18
-420 -1z"/>
<path d="M2853 2085 c-85 -18 -153 -57 -214 -122 -59 -63 -94 -133 -109 -226
-30 -171 61 -356 212 -433 104 -53 185 -64 305 -42 l64 12 69 -69 c39 -38 70
-76 70 -85 0 -9 -31 -47 -70 -85 l-69 -69 -64 12 c-120 22 -201 11 -305 -42
-151 -77 -242 -262 -212 -433 32 -189 165 -322 353 -354 174 -29 358 63 435
218 53 105 60 172 37 328 l-6 40 546 544 c311 311 548 555 552 569 8 33 -23
71 -83 102 -66 34 -189 35 -249 3 -22 -12 -166 -148 -320 -302 -154 -155 -287
-281 -295 -281 -9 0 -47 31 -85 70 l-69 69 12 64 c22 120 11 201 -42 305 -54
106 -167 188 -295 212 -67 13 -90 12 -168 -5z m170 -239 c57 -23 117 -111 117
-171 0 -32 -25 -90 -52 -121 -53 -60 -119 -83 -187 -64 -50 13 -109 63 -127
107 -29 68 -9 170 42 214 55 48 142 63 207 35z m-30 -1097 c43 -11 102 -59
121 -98 37 -71 27 -147 -27 -208 -39 -44 -82 -63 -142 -63 -104 0 -185 81
-185 185 0 84 48 152 126 180 48 17 59 18 107 4z"/>
<path d="M1590 2063 c-259 -27 -552 -133 -780 -281 -471 -306 -774 -835 -797
-1393 -5 -114 -3 -144 12 -189 24 -74 91 -143 161 -170 54 -20 73 -20 1159
-20 608 0 1105 3 1105 6 0 3 -30 38 -66 78 -422 467 -519 1120 -248 1683 24
51 74 136 109 189 36 52 65 97 65 100 0 5 -669 2 -720 -3z"/>
<path d="M3758 863 c-60 -60 -108 -113 -108 -118 0 -17 433 -442 470 -461 56
-29 182 -26 244 6 60 31 91 69 83 102 -6 24 -547 571 -570 576 -6 1 -60 -46
-119 -105z"/>
</g>
</svg>
