<?xml version="1.0" standalone="no"?>
<!DOCTYPE svg PUBLIC "-//W3C//DTD SVG 20010904//EN"
 "http://www.w3.org/TR/2001/REC-SVG-20010904/DTD/svg10.dtd">
<svg version="1.0" xmlns="http://www.w3.org/2000/svg"
 width="512.000000pt" height="512.000000pt" viewBox="0 0 512.000000 512.000000"
 preserveAspectRatio="xMidYMid meet">

<g transform="translate(0.000000,512.000000) scale(0.100000,-0.100000)"
fill="#fff" stroke="none">
<path d="M95 4906 c-69 -30 -108 -113 -87 -184 8 -25 305 -393 941 -1165 l931
-1128 2 -1057 3 -1057 24 -39 c27 -43 86 -75 138 -76 22 0 201 85 585 278 477
239 556 282 575 311 l23 34 0 466 c0 256 3 618 7 805 l6 338 929 1127 c631
766 932 1138 940 1163 22 72 -18 155 -89 184 -48 20 -4882 20 -4928 0z m4528
-308 c-4 -7 -378 -463 -832 -1013 -453 -550 -834 -1015 -845 -1034 -20 -34
-20 -53 -24 -812 l-4 -777 -358 -176 c-197 -97 -360 -176 -364 -176 -3 0 -6
431 -6 958 0 918 -1 958 -19 988 -10 17 -389 480 -843 1030 -453 549 -827
1005 -831 1012 -7 9 414 12 2063 12 1649 0 2070 -3 2063 -12z"/>
</g>
</svg>
