<?xml version="1.0" standalone="no"?>
<!DOCTYPE svg PUBLIC "-//W3C//DTD SVG 20010904//EN"
 "http://www.w3.org/TR/2001/REC-SVG-20010904/DTD/svg10.dtd">
<svg version="1.0" xmlns="http://www.w3.org/2000/svg"
 width="200.000000pt" height="200.000000pt" viewBox="0 0 200.000000 200.000000"
 preserveAspectRatio="xMidYMid meet">

<g transform="translate(0.000000,200.000000) scale(0.100000,-0.100000)"
fill="#E4E9F2" stroke="none">
<path d="M731 1255 c-19 -9 -73 -53 -120 -99 -92 -90 -127 -112 -188 -122 -88
-14 -206 49 -280 150 -24 32 -43 52 -43 45 1 -39 35 -152 65 -216 66 -137 174
-226 319 -263 180 -46 364 -8 475 98 l41 39 44 -41 c184 -172 536 -149 711 46
54 60 108 168 129 258 23 95 20 98 -27 34 -74 -101 -192 -164 -280 -150 -61
10 -95 32 -190 123 -48 46 -103 91 -122 99 -71 29 -187 10 -236 -38 l-29 -30
-31 30 c-51 49 -167 67 -238 37z"/>
</g>
</svg>
