<svg width="54" height="54" viewBox="0 0 54 54" fill="none" xmlns="http://www.w3.org/2000/svg">
<path d="M6.58333 47.4167H10.7396L39.25 18.9063L35.0938 14.75L6.58333 43.2604V47.4167ZM0.75 53.25V40.8542L39.25 2.42708C39.8333 1.89236 40.4774 1.47917 41.1823 1.1875C41.8872 0.895833 42.6285 0.75 43.4063 0.75C44.184 0.75 44.9375 0.895833 45.6667 1.1875C46.3958 1.47917 47.0278 1.91667 47.5625 2.5L51.5729 6.58333C52.1563 7.11806 52.5816 7.75 52.849 8.47917C53.1163 9.20833 53.25 9.9375 53.25 10.6667C53.25 11.4444 53.1163 12.1858 52.849 12.8906C52.5816 13.5955 52.1563 14.2396 51.5729 14.8229L13.1458 53.25H0.75ZM37.1354 16.8646L35.0938 14.75L39.25 18.9063L37.1354 16.8646Z" fill="#2F80ED"/>
</svg>
